<svg xmlns="http://www.w3.org/2000/svg" width="300" height="100" viewBox="0 0 300 100"><rect width="100%" height="100%" fill="#DDDDDD"/><path fill="#999999" d="M64.425 47.365v8.05q.74.9 1.6 1.26.87.37 1.88.37.98 0 1.77-.37.79-.36 1.34-1.12.55-.75.85-1.89.3-1.15.3-2.71 0-1.57-.26-2.67-.25-1.09-.72-1.77-.48-.69-1.15-1-.67-.32-1.53-.32-1.35 0-2.29.57-.95.57-1.79 1.6m-.58-4.46.35 1.66q1.11-1.24 2.51-2.01t3.29-.77q1.47 0 2.68.61 1.22.62 2.1 1.78.89 1.16 1.37 2.87t.48 3.91q0 2.01-.54 3.73-.55 1.71-1.55 2.97-1.01 1.26-2.44 1.97-1.42.71-3.19.71-1.5 0-2.57-.46-1.07-.47-1.91-1.29v7.35h-4.32v-23.82h2.64q.84 0 1.1.79m16.19-8.84h4.32v26.01h-4.32zm18.13 21.37v-3.03q-1.87.09-3.15.33-1.28.23-2.05.6t-1.1.86-.33 1.07q0 1.13.67 1.62.68.49 1.76.49 1.33 0 2.3-.48t1.9-1.46m-9.13-9.43-.77-1.38q3.09-2.84 7.45-2.84 1.58 0 2.82.52 1.24.51 2.1 1.43t1.3 2.2q.45 1.28.45 2.8v11.34h-1.96q-.61 0-.95-.18-.33-.19-.52-.75l-.39-1.29q-.68.61-1.33 1.07-.64.47-1.34.78-.7.32-1.5.48-.8.17-1.76.17-1.14 0-2.1-.31-.96-.3-1.66-.92-.7-.61-1.09-1.52-.38-.91-.38-2.12 0-.68.23-1.35.22-.68.74-1.29t1.34-1.15q.82-.55 2.02-.95t2.79-.65q1.59-.26 3.64-.31v-1.05q0-1.8-.77-2.67t-2.22-.87q-1.05 0-1.74.25-.69.24-1.22.55-.52.31-.95.55-.43.25-.96.25-.45 0-.77-.24-.31-.24-.5-.55m31.41-1.66-1.14 1.57q-.19.25-.37.39-.19.14-.54.14-.33 0-.65-.2-.31-.21-.75-.46t-1.04-.45q-.6-.21-1.5-.21-1.13 0-1.99.42-.86.41-1.43 1.18t-.85 1.86-.28 2.48q0 1.43.31 2.55t.88 1.88q.58.76 1.4 1.16.83.39 1.86.39t1.67-.25q.64-.26 1.08-.56.43-.31.76-.56.32-.26.72-.26.53 0 .79.41l1.24 1.57q-.71.84-1.55 1.41t-1.75.91q-.9.34-1.85.48t-1.9.14q-1.66 0-3.13-.62t-2.57-1.81q-1.11-1.19-1.75-2.91-.63-1.73-.63-3.93 0-1.98.56-3.67.57-1.69 1.68-2.92 1.1-1.24 2.73-1.94 1.62-.7 3.74-.7 2.01 0 3.53.65 1.51.65 2.72 1.86m6.28 4.69h8.16q0-.84-.24-1.59-.24-.74-.71-1.3t-1.2-.88q-.72-.33-1.69-.33-1.87 0-2.94 1.07-1.08 1.07-1.38 3.03m11.03 2.6h-11.12q.11 1.39.49 2.39.39 1.01 1.02 1.67.63.65 1.5.98.86.32 1.91.32t1.81-.25q.76-.24 1.33-.54t1-.54q.43-.25.83-.25.54 0 .81.41l1.24 1.57q-.72.84-1.61 1.41t-1.86.91q-.98.34-1.98.48-1.01.14-1.95.14-1.88 0-3.49-.62t-2.8-1.84q-1.19-1.21-1.87-3.01-.68-1.79-.68-4.15 0-1.84.59-3.46.6-1.62 1.71-2.82t2.71-1.9 3.62-.7q1.69 0 3.13.55 1.43.54 2.47 1.58 1.03 1.04 1.62 2.56.58 1.51.58 3.45 0 .98-.21 1.32t-.8.34m8.57-17.57v9.98q1.05-.98 2.31-1.59 1.26-.62 2.96-.62 1.47 0 2.61.5 1.13.5 1.9 1.4.76.9 1.15 2.16.39 1.25.39 2.75v11.43h-4.32v-11.43q0-1.64-.75-2.54-.75-.91-2.29-.91-1.12 0-2.1.51t-1.86 1.38v12.99h-4.32v-26.01zm23.36 7.77q2 0 3.64.65 1.63.65 2.8 1.84 1.16 1.19 1.79 2.9.63 1.72.63 3.84 0 2.13-.63 3.85-.63 1.71-1.79 2.92-1.17 1.21-2.8 1.85-1.64.65-3.64.65-2.01 0-3.65-.65-1.65-.64-2.81-1.85-1.17-1.21-1.8-2.92-.64-1.72-.64-3.85 0-2.12.64-3.84.63-1.71 1.8-2.9 1.16-1.19 2.81-1.84 1.64-.65 3.65-.65m0 15.18q2.24 0 3.32-1.51 1.08-1.5 1.08-4.41 0-2.9-1.08-4.43-1.08-1.52-3.32-1.52-2.27 0-3.36 1.53-1.1 1.53-1.1 4.42t1.1 4.4q1.09 1.52 3.36 1.52m12.22-22.95h4.32v26.01h-4.32zm19.91 20.69v-8.05q-.73-.89-1.6-1.26-.86-.37-1.86-.37-.98 0-1.77.37t-1.35 1.11-.85 1.89q-.3 1.15-.3 2.7 0 1.58.25 2.67.26 1.1.73 1.79t1.15 1q.69.3 1.53.3 1.34 0 2.29-.56.94-.56 1.78-1.59m0-20.69h4.33v26.01h-2.65q-.85 0-1.08-.79l-.37-1.73q-1.08 1.24-2.49 2.01t-3.28.77q-1.47 0-2.7-.61-1.22-.61-2.11-1.78-.88-1.16-1.36-2.88-.48-1.71-.48-3.92 0-1.99.54-3.71.54-1.71 1.56-2.97 1.01-1.26 2.43-1.97t3.18-.71q1.51 0 2.58.47 1.06.48 1.9 1.28zm12.01 14.97h8.15q0-.84-.23-1.59-.24-.74-.71-1.3t-1.2-.88q-.73-.33-1.69-.33-1.87 0-2.95 1.07-1.07 1.07-1.37 3.03m11.02 2.6h-11.11q.11 1.39.49 2.39.39 1.01 1.02 1.67.63.65 1.49.98.87.32 1.92.32t1.81-.25q.76-.24 1.33-.54t1-.54q.43-.25.83-.25.54 0 .8.41l1.25 1.57q-.72.84-1.61 1.41-.9.57-1.87.91t-1.98.48q-1 .14-1.95.14-1.87 0-3.48-.62t-2.8-1.84q-1.19-1.21-1.87-3.01-.68-1.79-.68-4.15 0-1.84.59-3.46.6-1.62 1.71-2.82t2.71-1.9 3.61-.7q1.7 0 3.14.55 1.43.54 2.46 1.58 1.04 1.04 1.62 2.56.59 1.51.59 3.45 0 .98-.21 1.32t-.81.34m8.07-8.43.26 2.03q.84-1.61 2-2.53 1.15-.92 2.73-.92 1.24 0 1.99.54l-.28 3.24q-.08.32-.25.45t-.45.13q-.26 0-.78-.09-.51-.09-1-.09-.72 0-1.28.21t-1 .61q-.45.39-.79.95t-.64 1.28v11.06h-4.32v-17.96h2.53q.67 0 .93.24t.35.85"/></svg>